<svg width="290" height="80" viewBox="0 0 290 80" fill="none" xmlns="http://www.w3.org/2000/svg">
<rect width="290" height="80" rx="10" fill="#FBD144"/>
<path d="M67.5955 32.71C69.2235 32.71 70.6461 33.0253 71.8635 33.656C73.0955 34.272 74.0415 35.1667 74.7015 36.34C75.3761 37.4987 75.7135 38.8553 75.7135 40.41C75.7135 41.9647 75.3761 43.314 74.7015 44.458C74.0415 45.602 73.0955 46.482 71.8635 47.098C70.6461 47.6993 69.2235 48 67.5955 48H62.6015V32.71H67.5955ZM67.5955 45.954C69.3848 45.954 70.7561 45.47 71.7095 44.502C72.6628 43.534 73.1395 42.17 73.1395 40.41C73.1395 38.6353 72.6628 37.2493 71.7095 36.252C70.7561 35.2547 69.3848 34.756 67.5955 34.756H65.1095V45.954H67.5955ZM82.9257 48.198C81.7817 48.198 80.7477 47.9413 79.8237 47.428C78.8997 46.9 78.1737 46.1667 77.6457 45.228C77.1177 44.2747 76.8537 43.1747 76.8537 41.928C76.8537 40.696 77.125 39.6033 77.6677 38.65C78.2103 37.6967 78.951 36.9633 79.8897 36.45C80.8283 35.9367 81.877 35.68 83.0357 35.68C84.1943 35.68 85.243 35.9367 86.1817 36.45C87.1203 36.9633 87.861 37.6967 88.4037 38.65C88.9463 39.6033 89.2177 40.696 89.2177 41.928C89.2177 43.16 88.939 44.2527 88.3817 45.206C87.8243 46.1593 87.0617 46.9 86.0937 47.428C85.1403 47.9413 84.0843 48.198 82.9257 48.198ZM82.9257 46.02C83.571 46.02 84.1723 45.866 84.7297 45.558C85.3017 45.25 85.7637 44.788 86.1157 44.172C86.4677 43.556 86.6437 42.808 86.6437 41.928C86.6437 41.048 86.475 40.3073 86.1377 39.706C85.8003 39.09 85.353 38.628 84.7957 38.32C84.2383 38.012 83.637 37.858 82.9917 37.858C82.3463 37.858 81.745 38.012 81.1877 38.32C80.645 38.628 80.2123 39.09 79.8897 39.706C79.567 40.3073 79.4057 41.048 79.4057 41.928C79.4057 43.2333 79.7357 44.2453 80.3957 44.964C81.0703 45.668 81.9137 46.02 82.9257 46.02ZM107.445 35.878L103.683 48H101.043L98.6015 39.046L96.1595 48H93.5195L89.7355 35.878H92.2875L94.8175 45.624L97.3915 35.878H100.009L102.473 45.58L104.981 35.878H107.445ZM114.904 35.68C115.858 35.68 116.708 35.878 117.456 36.274C118.219 36.67 118.813 37.2567 119.238 38.034C119.664 38.8113 119.876 39.75 119.876 40.85V48H117.39V41.224C117.39 40.1387 117.119 39.31 116.576 38.738C116.034 38.1513 115.293 37.858 114.354 37.858C113.416 37.858 112.668 38.1513 112.11 38.738C111.568 39.31 111.296 40.1387 111.296 41.224V48H108.788V35.878H111.296V37.264C111.707 36.7653 112.228 36.3767 112.858 36.098C113.504 35.8193 114.186 35.68 114.904 35.68ZM125.052 31.72V48H122.544V31.72H125.052ZM133.071 48.198C131.927 48.198 130.893 47.9413 129.969 47.428C129.045 46.9 128.319 46.1667 127.791 45.228C127.263 44.2747 126.999 43.1747 126.999 41.928C126.999 40.696 127.271 39.6033 127.813 38.65C128.356 37.6967 129.097 36.9633 130.035 36.45C130.974 35.9367 132.023 35.68 133.181 35.68C134.34 35.68 135.389 35.9367 136.327 36.45C137.266 36.9633 138.007 37.6967 138.549 38.65C139.092 39.6033 139.363 40.696 139.363 41.928C139.363 43.16 139.085 44.2527 138.527 45.206C137.97 46.1593 137.207 46.9 136.239 47.428C135.286 47.9413 134.23 48.198 133.071 48.198ZM133.071 46.02C133.717 46.02 134.318 45.866 134.875 45.558C135.447 45.25 135.909 44.788 136.261 44.172C136.613 43.556 136.789 42.808 136.789 41.928C136.789 41.048 136.621 40.3073 136.283 39.706C135.946 39.09 135.499 38.628 134.941 38.32C134.384 38.012 133.783 37.858 133.137 37.858C132.492 37.858 131.891 38.012 131.333 38.32C130.791 38.628 130.358 39.09 130.035 39.706C129.713 40.3073 129.551 41.048 129.551 41.928C129.551 43.2333 129.881 44.2453 130.541 44.964C131.216 45.668 132.059 46.02 133.071 46.02ZM140.475 41.884C140.475 40.6667 140.724 39.5887 141.223 38.65C141.736 37.7113 142.426 36.9853 143.291 36.472C144.171 35.944 145.139 35.68 146.195 35.68C147.148 35.68 147.977 35.8707 148.681 36.252C149.4 36.6187 149.972 37.0807 150.397 37.638V35.878H152.927V48H150.397V46.196C149.972 46.768 149.392 47.2447 148.659 47.626C147.926 48.0073 147.09 48.198 146.151 48.198C145.11 48.198 144.156 47.934 143.291 47.406C142.426 46.8633 141.736 46.1153 141.223 45.162C140.724 44.194 140.475 43.1013 140.475 41.884ZM150.397 41.928C150.397 41.092 150.221 40.366 149.869 39.75C149.532 39.134 149.084 38.6647 148.527 38.342C147.97 38.0193 147.368 37.858 146.723 37.858C146.078 37.858 145.476 38.0193 144.919 38.342C144.362 38.65 143.907 39.112 143.555 39.728C143.218 40.3293 143.049 41.048 143.049 41.884C143.049 42.72 143.218 43.4533 143.555 44.084C143.907 44.7147 144.362 45.1987 144.919 45.536C145.491 45.8587 146.092 46.02 146.723 46.02C147.368 46.02 147.97 45.8587 148.527 45.536C149.084 45.2133 149.532 44.744 149.869 44.128C150.221 43.4973 150.397 42.764 150.397 41.928ZM154.854 41.884C154.854 40.6667 155.103 39.5887 155.602 38.65C156.115 37.7113 156.804 36.9853 157.67 36.472C158.55 35.944 159.525 35.68 160.596 35.68C161.388 35.68 162.165 35.856 162.928 36.208C163.705 36.5453 164.321 37 164.776 37.572V31.72H167.306V48H164.776V46.174C164.365 46.7607 163.793 47.2447 163.06 47.626C162.341 48.0073 161.512 48.198 160.574 48.198C159.518 48.198 158.55 47.934 157.67 47.406C156.804 46.8633 156.115 46.1153 155.602 45.162C155.103 44.194 154.854 43.1013 154.854 41.884ZM164.776 41.928C164.776 41.092 164.6 40.366 164.248 39.75C163.91 39.134 163.463 38.6647 162.906 38.342C162.348 38.0193 161.747 37.858 161.102 37.858C160.456 37.858 159.855 38.0193 159.298 38.342C158.74 38.65 158.286 39.112 157.934 39.728C157.596 40.3293 157.428 41.048 157.428 41.884C157.428 42.72 157.596 43.4533 157.934 44.084C158.286 44.7147 158.74 45.1987 159.298 45.536C159.87 45.8587 160.471 46.02 161.102 46.02C161.747 46.02 162.348 45.8587 162.906 45.536C163.463 45.2133 163.91 44.744 164.248 44.128C164.6 43.4973 164.776 42.764 164.776 41.928ZM174.416 40.322C174.416 38.826 174.76 37.484 175.45 36.296C176.154 35.108 177.1 34.184 178.288 33.524C179.49 32.8493 180.803 32.512 182.226 32.512C183.854 32.512 185.298 32.9153 186.56 33.722C187.836 34.514 188.76 35.6433 189.332 37.11H186.318C185.922 36.3033 185.372 35.702 184.668 35.306C183.964 34.91 183.15 34.712 182.226 34.712C181.214 34.712 180.312 34.9393 179.52 35.394C178.728 35.8487 178.104 36.5013 177.65 37.352C177.21 38.2027 176.99 39.1927 176.99 40.322C176.99 41.4513 177.21 42.4413 177.65 43.292C178.104 44.1427 178.728 44.8027 179.52 45.272C180.312 45.7267 181.214 45.954 182.226 45.954C183.15 45.954 183.964 45.756 184.668 45.36C185.372 44.964 185.922 44.3627 186.318 43.556H189.332C188.76 45.0227 187.836 46.152 186.56 46.944C185.298 47.736 183.854 48.132 182.226 48.132C180.788 48.132 179.476 47.802 178.288 47.142C177.1 46.4673 176.154 45.536 175.45 44.348C174.76 43.16 174.416 41.818 174.416 40.322ZM204.914 32.71L199.172 48H196.268L190.504 32.71H193.188L197.72 45.426L202.274 32.71H204.914Z" fill="#3D3D3D"/>
<path d="M242.519 49H226.781C226.483 49 226.197 49.1054 225.986 49.2929C225.775 49.4804 225.657 49.7348 225.657 50C225.657 50.2652 225.775 50.5196 225.986 50.7071C226.197 50.8946 226.483 51 226.781 51H242.519C242.817 51 243.103 50.8946 243.314 50.7071C243.525 50.5196 243.643 50.2652 243.643 50C243.643 49.7348 243.525 49.4804 243.314 49.2929C243.103 49.1054 242.817 49 242.519 49ZM233.852 46.71C233.959 46.801 234.085 46.8724 234.223 46.92C234.357 46.9729 234.503 47.0002 234.65 47.0002C234.797 47.0002 234.943 46.9729 235.077 46.92C235.215 46.8724 235.341 46.801 235.448 46.71L239.945 42.71C240.156 42.5217 240.275 42.2663 240.275 42C240.275 41.7337 240.156 41.4783 239.945 41.29C239.733 41.1017 239.446 40.9959 239.146 40.9959C238.847 40.9959 238.56 41.1017 238.348 41.29L235.774 43.59V32C235.774 31.7348 235.656 31.4804 235.445 31.2929C235.234 31.1054 234.948 31 234.65 31C234.352 31 234.066 31.1054 233.855 31.2929C233.644 31.4804 233.526 31.7348 233.526 32V43.59L230.952 41.29C230.847 41.1968 230.722 41.1228 230.585 41.0723C230.448 41.0219 230.302 40.9959 230.153 40.9959C230.005 40.9959 229.858 41.0219 229.721 41.0723C229.585 41.1228 229.46 41.1968 229.355 41.29C229.25 41.3832 229.167 41.4939 229.111 41.6158C229.054 41.7376 229.025 41.8681 229.025 42C229.025 42.1319 229.054 42.2624 229.111 42.3842C229.167 42.5061 229.25 42.6168 229.355 42.71L233.852 46.71Z" fill="#3D3D3D"/>
</svg>
