<svg width="290" height="80" viewBox="0 0 290 80" fill="none" xmlns="http://www.w3.org/2000/svg">
<rect width="290" height="80" rx="10" fill="white"/>
<path d="M82.0864 40.322C82.0864 38.826 82.4311 37.484 83.1204 36.296C83.8244 35.108 84.7704 34.184 85.9584 33.524C87.1611 32.8493 88.4738 32.512 89.8964 32.512C91.5244 32.512 92.9691 32.9153 94.2304 33.722C95.5064 34.514 96.4304 35.6433 97.0024 37.11H93.9884C93.5924 36.3033 93.0424 35.702 92.3384 35.306C91.6344 34.91 90.8204 34.712 89.8964 34.712C88.8844 34.712 87.9824 34.9393 87.1904 35.394C86.3984 35.8487 85.7751 36.5013 85.3204 37.352C84.8804 38.2027 84.6604 39.1927 84.6604 40.322C84.6604 41.4513 84.8804 42.4413 85.3204 43.292C85.7751 44.1427 86.3984 44.8027 87.1904 45.272C87.9824 45.7267 88.8844 45.954 89.8964 45.954C90.8204 45.954 91.6344 45.756 92.3384 45.36C93.0424 44.964 93.5924 44.3627 93.9884 43.556H97.0024C96.4304 45.0227 95.5064 46.152 94.2304 46.944C92.9691 47.736 91.5244 48.132 89.8964 48.132C88.4591 48.132 87.1464 47.802 85.9584 47.142C84.7704 46.4673 83.8244 45.536 83.1204 44.348C82.4311 43.16 82.0864 41.818 82.0864 40.322ZM104.696 48.198C103.552 48.198 102.518 47.9413 101.594 47.428C100.67 46.9 99.9438 46.1667 99.4158 45.228C98.8878 44.2747 98.6238 43.1747 98.6238 41.928C98.6238 40.696 98.8952 39.6033 99.4378 38.65C99.9805 37.6967 100.721 36.9633 101.66 36.45C102.599 35.9367 103.647 35.68 104.806 35.68C105.965 35.68 107.013 35.9367 107.952 36.45C108.891 36.9633 109.631 37.6967 110.174 38.65C110.717 39.6033 110.988 40.696 110.988 41.928C110.988 43.16 110.709 44.2527 110.152 45.206C109.595 46.1593 108.832 46.9 107.864 47.428C106.911 47.9413 105.855 48.198 104.696 48.198ZM104.696 46.02C105.341 46.02 105.943 45.866 106.5 45.558C107.072 45.25 107.534 44.788 107.886 44.172C108.238 43.556 108.414 42.808 108.414 41.928C108.414 41.048 108.245 40.3073 107.908 39.706C107.571 39.09 107.123 38.628 106.566 38.32C106.009 38.012 105.407 37.858 104.762 37.858C104.117 37.858 103.515 38.012 102.958 38.32C102.415 38.628 101.983 39.09 101.66 39.706C101.337 40.3073 101.176 41.048 101.176 41.928C101.176 43.2333 101.506 44.2453 102.166 44.964C102.841 45.668 103.684 46.02 104.696 46.02ZM119.083 35.68C120.036 35.68 120.887 35.878 121.635 36.274C122.398 36.67 122.992 37.2567 123.417 38.034C123.842 38.8113 124.055 39.75 124.055 40.85V48H121.569V41.224C121.569 40.1387 121.298 39.31 120.755 38.738C120.212 38.1513 119.472 37.858 118.533 37.858C117.594 37.858 116.846 38.1513 116.289 38.738C115.746 39.31 115.475 40.1387 115.475 41.224V48H112.967V35.878H115.475V37.264C115.886 36.7653 116.406 36.3767 117.037 36.098C117.682 35.8193 118.364 35.68 119.083 35.68ZM129.68 37.924V44.634C129.68 45.0887 129.782 45.4187 129.988 45.624C130.208 45.8147 130.574 45.91 131.088 45.91H132.628V48H130.648C129.518 48 128.653 47.736 128.052 47.208C127.45 46.68 127.15 45.822 127.15 44.634V37.924H125.72V35.878H127.15V32.864H129.68V35.878H132.628V37.924H129.68ZM133.603 41.884C133.603 40.6667 133.852 39.5887 134.351 38.65C134.864 37.7113 135.554 36.9853 136.419 36.472C137.299 35.944 138.267 35.68 139.323 35.68C140.276 35.68 141.105 35.8707 141.809 36.252C142.528 36.6187 143.1 37.0807 143.525 37.638V35.878H146.055V48H143.525V46.196C143.1 46.768 142.52 47.2447 141.787 47.626C141.054 48.0073 140.218 48.198 139.279 48.198C138.238 48.198 137.284 47.934 136.419 47.406C135.554 46.8633 134.864 46.1153 134.351 45.162C133.852 44.194 133.603 43.1013 133.603 41.884ZM143.525 41.928C143.525 41.092 143.349 40.366 142.997 39.75C142.66 39.134 142.212 38.6647 141.655 38.342C141.098 38.0193 140.496 37.858 139.851 37.858C139.206 37.858 138.604 38.0193 138.047 38.342C137.49 38.65 137.035 39.112 136.683 39.728C136.346 40.3293 136.177 41.048 136.177 41.884C136.177 42.72 136.346 43.4533 136.683 44.084C137.035 44.7147 137.49 45.1987 138.047 45.536C138.619 45.8587 139.22 46.02 139.851 46.02C140.496 46.02 141.098 45.8587 141.655 45.536C142.212 45.2133 142.66 44.744 142.997 44.128C143.349 43.4973 143.525 42.764 143.525 41.928ZM148.013 41.928C148.013 40.6813 148.262 39.5887 148.761 38.65C149.274 37.6967 149.978 36.9633 150.873 36.45C151.768 35.9367 152.794 35.68 153.953 35.68C155.42 35.68 156.63 36.032 157.583 36.736C158.551 37.4253 159.204 38.4153 159.541 39.706H156.835C156.615 39.1047 156.263 38.6353 155.779 38.298C155.295 37.9607 154.686 37.792 153.953 37.792C152.926 37.792 152.105 38.1587 151.489 38.892C150.888 39.6107 150.587 40.6227 150.587 41.928C150.587 43.2333 150.888 44.2527 151.489 44.986C152.105 45.7193 152.926 46.086 153.953 46.086C155.405 46.086 156.366 45.448 156.835 44.172H159.541C159.189 45.404 158.529 46.3867 157.561 47.12C156.593 47.8387 155.39 48.198 153.953 48.198C152.794 48.198 151.768 47.9413 150.873 47.428C149.978 46.9 149.274 46.1667 148.761 45.228C148.262 44.2747 148.013 43.1747 148.013 41.928ZM164.466 37.924V44.634C164.466 45.0887 164.569 45.4187 164.774 45.624C164.994 45.8147 165.361 45.91 165.874 45.91H167.414V48H165.434C164.305 48 163.44 47.736 162.838 47.208C162.237 46.68 161.936 45.822 161.936 44.634V37.924H160.506V35.878H161.936V32.864H164.466V35.878H167.414V37.924H164.466ZM189.114 35.68C190.068 35.68 190.918 35.878 191.666 36.274C192.429 36.67 193.023 37.2567 193.448 38.034C193.888 38.8113 194.108 39.75 194.108 40.85V48H191.622V41.224C191.622 40.1387 191.351 39.31 190.808 38.738C190.266 38.1513 189.525 37.858 188.586 37.858C187.648 37.858 186.9 38.1513 186.342 38.738C185.8 39.31 185.528 40.1387 185.528 41.224V48H183.042V41.224C183.042 40.1387 182.771 39.31 182.228 38.738C181.686 38.1513 180.945 37.858 180.006 37.858C179.068 37.858 178.32 38.1513 177.762 38.738C177.22 39.31 176.948 40.1387 176.948 41.224V48H174.44V35.878H176.948V37.264C177.359 36.7653 177.88 36.3767 178.51 36.098C179.141 35.8193 179.816 35.68 180.534 35.68C181.502 35.68 182.368 35.8853 183.13 36.296C183.893 36.7067 184.48 37.3007 184.89 38.078C185.257 37.3447 185.829 36.7653 186.606 36.34C187.384 35.9 188.22 35.68 189.114 35.68ZM207.909 41.642C207.909 42.0967 207.88 42.5073 207.821 42.874H198.559C198.633 43.842 198.992 44.6193 199.637 45.206C200.283 45.7927 201.075 46.086 202.013 46.086C203.363 46.086 204.316 45.5213 204.873 44.392H207.579C207.213 45.5067 206.545 46.4233 205.577 47.142C204.624 47.846 203.436 48.198 202.013 48.198C200.855 48.198 199.813 47.9413 198.889 47.428C197.98 46.9 197.261 46.1667 196.733 45.228C196.22 44.2747 195.963 43.1747 195.963 41.928C195.963 40.6813 196.213 39.5887 196.711 38.65C197.225 37.6967 197.936 36.9633 198.845 36.45C199.769 35.9367 200.825 35.68 202.013 35.68C203.157 35.68 204.177 35.9293 205.071 36.428C205.966 36.9267 206.663 37.6307 207.161 38.54C207.66 39.4347 207.909 40.4687 207.909 41.642ZM205.291 40.85C205.277 39.926 204.947 39.1853 204.301 38.628C203.656 38.0707 202.857 37.792 201.903 37.792C201.038 37.792 200.297 38.0707 199.681 38.628C199.065 39.1707 198.699 39.9113 198.581 40.85H205.291Z" fill="#3D3D3D"/>
</svg>
